<svg width="32" height="32" viewBox="0 0 32 32" fill="none" xmlns="http://www.w3.org/2000/svg">
<path d="M16 1L1.14282 8.33333V23.3333L16 31L30.8571 23.6667V8.66667L16 1Z" fill="#092030" stroke="#092030"/>
<path d="M14.7529 11.0012C15.0863 11.2762 15.3446 11.6242 15.5279 12.045C15.7154 12.4658 15.8196 12.92 15.8404 13.4075L13.9467 19.0075C14.105 19.3492 14.2238 19.7512 14.3029 20.2137C14.1238 20.3637 13.8738 20.4783 13.5529 20.5575C13.2363 20.6325 12.8946 20.67 12.5279 20.67C12.1446 20.67 11.7863 20.6283 11.4529 20.545C11.1238 20.4575 10.88 20.3387 10.7217 20.1887C10.7508 19.9262 10.7988 19.6867 10.8654 19.47C10.9363 19.2533 11.0217 19.0387 11.1217 18.8262L10.2342 15.7512L9.42168 18.9887C9.58418 19.3304 9.70501 19.7387 9.78418 20.2137C9.60501 20.3637 9.35501 20.4783 9.03418 20.5575C8.71751 20.6325 8.37585 20.67 8.00918 20.67C7.62585 20.67 7.26751 20.6283 6.93418 20.545C6.60501 20.4575 6.36126 20.3387 6.20293 20.1887C6.25293 19.7387 6.38001 19.2992 6.58418 18.87L5.29043 13.9013L5.27168 13.8325L4.19043 12.395C4.2946 12.1783 4.4571 11.9637 4.67793 11.7512C4.89876 11.5346 5.14668 11.3575 5.42168 11.22C5.69668 11.0783 5.95918 11.0054 6.20918 11.0012C6.40918 10.9929 6.59668 11.0262 6.77168 11.1012C6.95085 11.1721 7.10501 11.2846 7.23418 11.4387H7.24043C7.2946 11.5554 7.39876 12.07 7.55293 12.9825C7.7071 13.8908 7.85501 14.8721 7.99668 15.9262C8.13835 16.9804 8.22585 17.7908 8.25918 18.3575H8.30293L9.29668 14.0638C9.05501 13.8513 8.85085 13.6429 8.68418 13.4388C8.51751 13.2304 8.36335 12.9679 8.22168 12.6513C8.50085 12.1888 8.87168 11.8158 9.33418 11.5325C9.80085 11.2492 10.2738 11.0783 10.7529 11.02C11.0113 11.2533 11.2258 11.6158 11.3967 12.1075C11.5717 12.595 11.6675 13.0867 11.6842 13.5825L11.6779 13.595C11.6904 13.67 11.7571 13.9054 11.8779 14.3013C12.1154 15.1054 12.3154 15.8387 12.4779 16.5012C12.6446 17.1637 12.7446 17.7825 12.7779 18.3575H12.8842L13.5029 14.0888L13.2529 13.8825C12.9988 13.67 12.7925 13.4804 12.6342 13.3138C12.48 13.1429 12.3467 12.9346 12.2342 12.6888C12.3633 12.3804 12.5675 12.1054 12.8467 11.8637C13.1258 11.6221 13.4342 11.4283 13.7717 11.2825C14.1133 11.1325 14.4404 11.0387 14.7529 11.0012Z" fill="#05C8D8"/>
<path d="M26.2529 11.0012C26.5863 11.2762 26.8446 11.6242 27.0279 12.045C27.2154 12.4658 27.3196 12.92 27.3404 13.4075L25.4467 19.0075C25.605 19.3492 25.7238 19.7512 25.8029 20.2137C25.6238 20.3637 25.3738 20.4783 25.0529 20.5575C24.7363 20.6325 24.3946 20.67 24.0279 20.67C23.6446 20.67 23.2863 20.6283 22.9529 20.545C22.6238 20.4575 22.38 20.3387 22.2217 20.1887C22.2508 19.9262 22.2988 19.6867 22.3654 19.47C22.4363 19.2533 22.5217 19.0387 22.6217 18.8262L21.7342 15.7512L20.9217 18.9887C21.0842 19.3304 21.205 19.7387 21.2842 20.2137C21.105 20.3637 20.855 20.4783 20.5342 20.5575C20.2175 20.6325 19.8758 20.67 19.5092 20.67C19.1258 20.67 18.7675 20.6283 18.4342 20.545C18.105 20.4575 17.8613 20.3387 17.7029 20.1887C17.7529 19.7387 17.88 19.2992 18.0842 18.87L16.7904 13.9013L16.7717 13.8325L15.6904 12.395C15.7946 12.1783 15.9571 11.9637 16.1779 11.7512C16.3988 11.5346 16.6467 11.3575 16.9217 11.22C17.1967 11.0783 17.4592 11.0054 17.7092 11.0012C17.9092 10.9929 18.0967 11.0262 18.2717 11.1012C18.4508 11.1721 18.605 11.2846 18.7342 11.4387H18.7404C18.7946 11.5554 18.8988 12.07 19.0529 12.9825C19.2071 13.8908 19.355 14.8721 19.4967 15.9262C19.6383 16.9804 19.7258 17.7908 19.7592 18.3575H19.8029L20.7967 14.0638C20.555 13.8513 20.3508 13.6429 20.1842 13.4388C20.0175 13.2304 19.8633 12.9679 19.7217 12.6513C20.0008 12.1888 20.3717 11.8158 20.8342 11.5325C21.3008 11.2492 21.7738 11.0783 22.2529 11.02C22.5113 11.2533 22.7258 11.6158 22.8967 12.1075C23.0717 12.595 23.1675 13.0867 23.1842 13.5825L23.1779 13.595C23.1904 13.67 23.2571 13.9054 23.3779 14.3013C23.6154 15.1054 23.8154 15.8387 23.9779 16.5012C24.1446 17.1637 24.2446 17.7825 24.2779 18.3575H24.3842L25.0029 14.0888L24.7529 13.8825C24.4988 13.67 24.2925 13.4804 24.1342 13.3138C23.98 13.1429 23.8467 12.9346 23.7342 12.6888C23.8633 12.3804 24.0675 12.1054 24.3467 11.8637C24.6258 11.6221 24.9342 11.4283 25.2717 11.2825C25.6133 11.1325 25.9404 11.0387 26.2529 11.0012Z" fill="#05C8D8"/>
<path d="M15.0424 11.1627C15.3702 11.4331 15.6242 11.7752 15.8045 12.1891C15.9889 12.6029 16.0913 13.0495 16.1118 13.5289L14.2496 19.0355C14.4053 19.3715 14.5221 19.7669 14.5999 20.2217C14.4237 20.3692 14.1779 20.4818 13.8624 20.5597C13.551 20.6334 13.215 20.6703 12.8545 20.6703C12.4775 20.6703 12.1252 20.6293 11.7974 20.5474C11.4737 20.4614 11.234 20.3446 11.0783 20.1971C11.107 19.939 11.1541 19.7034 11.2197 19.4903C11.2894 19.2773 11.3733 19.0662 11.4717 18.8573L10.599 15.8335L9.80001 19.0171C9.9598 19.3531 10.0786 19.7546 10.1565 20.2217C9.98029 20.3692 9.73446 20.4818 9.41897 20.5597C9.10758 20.6334 8.77161 20.6703 8.41105 20.6703C8.03411 20.6703 7.68175 20.6293 7.35397 20.5474C7.03029 20.4614 6.7906 20.3446 6.63491 20.1971C6.68408 19.7546 6.80904 19.3223 7.0098 18.9003L5.73762 14.0144L5.71918 13.9468L4.65595 12.5332C4.75838 12.3202 4.91817 12.1092 5.13533 11.9002C5.35248 11.6872 5.59626 11.513 5.86668 11.3778C6.1371 11.2385 6.39522 11.1668 6.64105 11.1627C6.83772 11.1545 7.0221 11.1873 7.19418 11.261C7.37036 11.3307 7.52196 11.4413 7.64897 11.5929H7.65512C7.70838 11.7076 7.81081 12.2136 7.96241 13.1109C8.11401 14.0041 8.25946 14.969 8.39876 16.0056C8.53807 17.0422 8.62411 17.8391 8.65689 18.3964H8.69991L9.6771 14.1742C9.43946 13.9652 9.23869 13.7603 9.0748 13.5596C8.91092 13.3547 8.75932 13.0966 8.62001 12.7852C8.89453 12.3304 9.25918 11.9637 9.71397 11.6851C10.1729 11.4065 10.6379 11.2385 11.1091 11.1811C11.3631 11.4106 11.5741 11.767 11.7421 12.2505C11.9142 12.7299 12.0084 13.2134 12.0248 13.7009L12.0187 13.7132C12.031 13.787 12.0965 14.0185 12.2153 14.4077C12.4489 15.1985 12.6455 15.9196 12.8053 16.571C12.9692 17.2225 13.0675 17.8309 13.1003 18.3964H13.2048L13.8132 14.1988L13.5674 13.9959C13.3175 13.787 13.1147 13.6006 12.959 13.4367C12.8074 13.2687 12.6763 13.0638 12.5656 12.8221C12.6927 12.5189 12.8934 12.2485 13.1679 12.0108C13.4424 11.7732 13.7456 11.5827 14.0775 11.4393C14.4135 11.2918 14.7351 11.1996 15.0424 11.1627Z" fill="#FFFFFB"/>
<path d="M26.5644 11.0012C26.8922 11.2717 27.1462 11.6138 27.3265 12.0276C27.5108 12.4414 27.6133 12.888 27.6338 13.3674L25.7716 18.8741C25.9273 19.21 26.044 19.6054 26.1219 20.0602C25.9457 20.2077 25.6999 20.3204 25.3844 20.3982C25.073 20.472 24.737 20.5089 24.3765 20.5089C23.9995 20.5089 23.6472 20.4679 23.3194 20.3859C22.9957 20.2999 22.756 20.1831 22.6003 20.0356C22.629 19.7775 22.6761 19.5419 22.7417 19.3289C22.8113 19.1158 22.8953 18.9048 22.9937 18.6958L22.121 15.6721L21.322 18.8556C21.4818 19.1916 21.6006 19.5931 21.6785 20.0602C21.5023 20.2077 21.2564 20.3204 20.941 20.3982C20.6296 20.472 20.2936 20.5089 19.933 20.5089C19.5561 20.5089 19.2037 20.4679 18.876 20.3859C18.5523 20.2999 18.3126 20.1831 18.1569 20.0356C18.2061 19.5931 18.331 19.1609 18.5318 18.7389L17.2596 13.8529L17.2412 13.7853L16.1779 12.3718C16.2804 12.1587 16.4402 11.9477 16.6573 11.7387C16.8745 11.5257 17.1182 11.3516 17.3887 11.2164C17.6591 11.077 17.9172 11.0053 18.163 11.0012C18.3597 10.9931 18.5441 11.0258 18.7162 11.0996C18.8923 11.1692 19.0439 11.2799 19.171 11.4315H19.1771C19.2304 11.5462 19.3328 12.0522 19.4844 12.9495C19.636 13.8427 19.7814 14.8076 19.9207 15.8442C20.06 16.8808 20.1461 17.6777 20.1789 18.2349H20.2219L21.1991 14.0127C20.9614 13.8037 20.7607 13.5989 20.5968 13.3981C20.4329 13.1933 20.2813 12.9351 20.142 12.6237C20.4165 12.169 20.7812 11.8023 21.236 11.5236C21.6948 11.245 22.1599 11.077 22.6311 11.0197C22.8851 11.2491 23.0961 11.6056 23.2641 12.0891C23.4362 12.5684 23.5304 13.0519 23.5468 13.5395L23.5406 13.5518C23.5529 13.6255 23.6185 13.857 23.7373 14.2462C23.9708 15.037 24.1675 15.7581 24.3273 16.4096C24.4912 17.061 24.5895 17.6695 24.6223 18.2349H24.7268L25.3352 14.0373L25.0894 13.8345C24.8395 13.6255 24.6366 13.4391 24.481 13.2752C24.3294 13.1072 24.1982 12.9024 24.0876 12.6606C24.2146 12.3574 24.4154 12.087 24.6899 11.8494C24.9644 11.6117 25.2676 11.4212 25.5995 11.2778C25.9355 11.1303 26.2571 11.0381 26.5644 11.0012Z" fill="#FFFFFB"/>
</svg>
